<svg t="1577349208723" class="icon" viewBox="0 0 1024 1024" version="1.1" xmlns="http://www.w3.org/2000/svg" p-id="14938" width="200" height="200"><path d="M716.344889 120.877511c-22.004622 0-48.605867 9.375289-71.702756 23.620267a32.517689 32.517689 0 0 1-41.415111-6.052978c-21.595022-24.484978-45.397333-46.2848-74.911289-59.938133-31.197867-14.427022-67.720533-24.120889-102.627555-24.120889-56.593067 0-114.824533 23.096889-156.421689 58.322489-40.982756 34.816-66.9696 81.92-73.773511 133.984711a31.379911 31.379911 0 0 1-20.093156 25.167644c-32.995556 12.583822-60.916622 38.115556-81.419378 64.944356-21.2992 27.807289-37.182578 61.212444-37.182577 94.663111 0 41.870222 16.475022 88.632889 46.785422 119.557689 30.401422 30.902044 73.728 48.560356 118.010311 52.064711 17.6128 1.365333 35.908267 10.968178 34.497422 28.148622-1.388089 17.157689-16.884622 29.946311-34.497422 28.580978-59.8016-4.778667-115.484444-30.537956-156.694756-72.362667C23.005867 544.881778 0 489.494756 0 431.468089c0-47.012978 15.610311-92.273778 45.192533-130.980978A250.379378 250.379378 0 0 1 138.990933 225.962667c12.014933-60.279467 44.418844-115.0976 92.501334-155.966578C284.694756 24.871822 353.6896 0 425.688178 0c78.119822 0 152.689778 30.037333 208.418133 83.103289 25.713778-11.992178 51.791644-18.136178 77.892267-18.136178 51.108978 0 99.305244 19.501511 135.600355 55.000178a184.183467 184.183467 0 0 1 55.591823 114.801778 237.112889 237.112889 0 0 1 81.92 72.954311A217.133511 217.133511 0 0 1 1024 431.581867c0 58.026667-22.983111 113.436444-64.898844 155.966577-41.187556 41.824711-96.893156 67.492978-156.785778 72.271645-0.910222 0.091022-1.706667 0.091022-2.616889 0.091022-16.497778 0-30.492444-12.379022-31.903289-28.672-1.388089-17.180444 14.313244-26.783289 31.903289-28.148622 44.305067-3.504356 95.459556-23.483733 125.838222-54.408533 30.424178-30.811022 44.509867-76.413156 44.509867-118.237867 0-63.988622-45.169778-123.653689-107.656534-151.552a31.175111 31.175111 0 0 1-18.705066-28.376178v-2.048c0-33.1776-12.652089-67.219911-36.955022-90.908444a129.115022 129.115022 0 0 0-90.385067-36.681956zM541.718756 837.176889c37.182578 13.220978 66.286933 48.878933 66.286933 90.658133A96.233244 96.233244 0 0 1 512 1024a96.256 96.256 0 0 1-96.005689-96.164978c0-41.7792 28.285156-77.437156 65.490489-90.658133l3.117511-390.189511c0-17.726578 9.693867-32.039822 27.397689-32.039822s29.718756 14.336 29.718756 32.039822V837.176889z m-28.285156 129.206044c22.254933 0 40.482133-17.976889 40.482133-39.981511 0-21.981867-18.204444-39.958756-40.482133-39.958755-22.277689 0-40.504889 17.976889-40.504889 39.958755 0 22.004622 18.2272 39.981511 40.504889 39.981511z m-33.450667-615.765333a32.017067 32.017067 0 0 1 63.988623 0 32.017067 32.017067 0 1 1-63.965867 0z m-159.971555 0c0-17.681067 14.336-32.039822 31.994311-32.039822 17.658311 0 31.994311 14.336 31.994311 32.062578a32.017067 32.017067 0 1 1-63.988622 0zM927.971556 703.465244A96.256 96.256 0 0 1 1024 799.630222a96.256 96.256 0 0 1-96.005689 96.164978c-41.688178 0-77.300622-29.513956-90.498844-66.787556h-165.819734c-17.703822 0-31.675733-11.650844-31.675733-29.354666V446.964622c0-17.726578 11.582578-31.584711 29.2864-31.584711 17.681067 0 28.535467 13.880889 28.535467 31.584711V770.730667h139.6736c13.198222-37.250844 48.810667-67.265422 90.498844-67.265423z m1.456355 134.5536c22.277689 0 40.504889-17.976889 40.504889-39.958755s-18.2272-39.981511-40.504889-39.981511c-22.254933 0-40.482133 17.976889-40.482133 39.981511 0 21.981867 18.204444 39.958756 40.504889 39.958755zM640 350.663111c0-17.703822 14.336-32.062578 31.994311-32.062578 17.681067 0 31.994311 14.336 31.994311 32.062578a32.017067 32.017067 0 1 1-63.988622 0zM354.076444 414.9248c17.703822 0 29.923556 14.336 29.923556 32.085333v352.597334c0 17.749333-14.631822 30.424178-32.312889 30.424177h-165.205333c-13.198222 37.250844-48.787911 65.763556-90.476089 65.763556A96.256 96.256 0 0 1 0 799.584711a96.256 96.256 0 0 1 96.005689-96.164978c41.688178 0 77.300622 30.196622 90.498844 67.447467h140.401778V446.987378c0-17.726578 9.466311-32.085333 27.170133-32.085334zM97.393778 840.362667c22.277689 0 40.504889-17.999644 40.504889-39.981511 0-21.981867-18.2272-39.981511-40.504889-39.981512-22.254933 0-40.482133 17.999644-40.482134 39.981512 0 21.981867 18.204444 39.981511 40.504889 39.981511z" p-id="14939" fill="#f47c48"></path></svg>