<svg t="1577349568581" class="icon" viewBox="0 0 1024 1024" version="1.1" xmlns="http://www.w3.org/2000/svg" p-id="31237" width="200" height="200"><path d="M510.22336 511.7952m-510.22336 0a510.22336 510.22336 0 1 0 1020.44672 0 510.22336 510.22336 0 1 0-1020.44672 0Z" fill="#EE8067" p-id="31238"></path><path d="M542.12608 219.56096H217.98912v584.46336h463.96928V359.43936z" fill="#E6E8ED" p-id="31239"></path><path d="M542.12608 359.43936h139.83232l-139.83232-139.8784z" fill="#ABB2B9" p-id="31240"></path><path d="M260.09088 411.19232h88.85248v88.8832H260.09088z" fill="#2D9480" p-id="31241"></path><path d="M392.76544 446.49472h247.08096v18.26304H392.76544z" fill="#62C0B2" p-id="31242"></path><path d="M260.09088 262.03136h247.0912v18.26304h-247.0912z" fill="#E3543F" p-id="31243"></path><path d="M260.09088 318.64832h160.16896v18.26304H260.09088z" fill="#ABB2B9" p-id="31244"></path><path d="M260.09088 542.6944h88.85248v88.8832H260.09088z" fill="#2A3A4D" p-id="31245"></path><path d="M392.76544 578.00192h247.08096v18.26304H392.76544z" fill="#31495D" p-id="31246"></path><path d="M260.09088 674.19648h88.85248v88.88832H260.09088z" fill="#F0B04E" p-id="31247"></path><path d="M392.76544 709.51936h247.08096v18.25792H392.76544z" fill="#E3543F" p-id="31248"></path><path d="M290.49856 485.66272l-20.43392-25.66656 11.42272-9.09824 8.41728 10.56768c9.7536-12.19072 29.7984-33.78688 49.05984-33.11104l-0.39424 14.60736c-15.09888-0.32768-36.20352 25.4976-42.48064 34.59584l-5.59104 8.10496zM290.49856 615.80288l-20.43392-25.67168 11.42272-9.10336 8.41728 10.5728c9.7536-12.18048 29.7984-33.78176 49.05984-33.11616l-0.39424 14.60736c-15.09888-0.32256-36.20352 25.4976-42.48064 34.60096l-5.59104 8.11008zM290.49856 745.9328l-20.43392-25.66144 11.42272-9.10848 8.41728 10.56768c9.7536-12.18048 29.7984-33.78176 49.05984-33.1008l-0.39424 14.59712c-15.09888-0.32256-36.20352 25.4976-42.48064 34.59584l-5.59104 8.11008z" fill="#FFFFFF" p-id="31249"></path><path d="M802.4576 243.9936a24.42752 24.42752 0 0 0-24.42752-24.43264h-48.22528a24.43264 24.43264 0 0 0-24.42752 24.43264v45.50656h97.0752v-45.50656z" fill="#2D9480" p-id="31250"></path><path d="M753.93024 289.49504h-48.54272v426.86976h97.07008V289.49504z" fill="#31495D" p-id="31251"></path><path d="M753.93024 804.02432l15.16544-27.38688h-30.33088z" fill="#2A3A4D" p-id="31252"></path><path d="M705.38752 716.3648l33.37728 60.27264h30.33088l33.36192-60.27264z" fill="#FFFFFF" p-id="31253"></path></svg>