<svg t="1577349677582" class="icon" viewBox="0 0 1024 1024" version="1.1" xmlns="http://www.w3.org/2000/svg" p-id="43530" width="200" height="200"><path d="M835.8 1002.3c0-114.7-93.8-208.5-208.5-208.5H396.7c-114.7 0-208.5 93.8-208.5 208.5v7.9h647.6v-7.9z m0 0" fill="#A2D7D4" p-id="43531"></path><path d="M849.6 1024H174.4v-21.7c0-122.5 99.8-222.3 222.3-222.3h230.7c122.6 0 222.3 99.8 222.3 222.3v21.7z m-647.5-27.6h619.7c-3.4-105.1-89.4-188.5-194.5-188.7H396.7c-105.2 0.2-191.3 83.6-194.6 188.7z m0 0" fill="#39363F" p-id="43532"></path><path d="M294 538.6c-34.2 0-61.8-41.9-61.8-75.9 0-34.1 27.6-47.9 61.8-47.9" fill="#FCEEEA" p-id="43533"></path><path d="M294 552.4c-42.7 0-75.6-48.2-75.6-89.7 0-38 29-61.6 75.6-61.6v27.7c-21.9 0-48 5.8-48 33.9 0 27.4 22.5 62.1 48 62.1v27.6z m0 0" fill="#39363F" p-id="43534"></path><path d="M730 414.8c34.2 0 61.8 13.6 61.8 47.9 0 34.1-27.7 75.9-61.8 75.9" fill="#FCEEEA" p-id="43535"></path><path d="M730 552.4v-27.7c25.5 0 48-34.7 48-62.1 0-28.1-26.1-33.9-48-33.9V401c46.7 0 75.8 23.7 75.8 61.6 0 41.6-33.1 89.8-75.8 89.8z m0 0" fill="#39363F" p-id="43536"></path><path d="M298.7 191.9v329.3c0 101.6 84.4 185.8 183 199.1v105.6c0 12.5 6.7 24.2 17.5 30.5 10.9 6.3 24.3 6.3 35.2 0 10.9-6.3 17.5-17.8 17.5-30.5V718.4c98.5-18.7 168.9-99.1 168.9-195.8V191.9H298.7z m0 0" fill="#FCEEEA" p-id="43537"></path><path d="M516.7 874.7c-27.1 0-49-22.1-49-49V732c-103.5-19.8-182.8-110.2-182.8-210.7V178.1h449.7v344.2c0 99.4-68.8 183.2-168.9 207v96.4c0 27.1-21.9 49-49 49z m-204.2-669v315.4c0 90.9 75.1 172.3 171 185.3l12 1.6v117.6c0.6 11.4 9.9 20.3 21.3 20.3s20.8-8.9 21.3-20.3V706.5l11.2-2.1c92.8-17.7 157.5-92.6 157.5-182.3V205.7H312.5z m0 0" fill="#39363F" p-id="43538"></path><path d="M296.4 300.6c210.7 48.5 313.6-85.8 334-85.3 19.1 0.5 19.8 87.1 90.2 97.7v81.1C791 352.9 781 257.8 781 257.8c0-135-121.7-244.5-270.8-244.5C361 13.3 242 122.7 242 257.6c0 0-5.4 70.9 54.5 122.2l-0.1-79.2z m0 0" fill="#4D4D4D" p-id="43539"></path><path d="M706.8 418.4v-94.1c-44.6-12.5-61.6-53.4-72-78.5-1.9-5-4.2-9.9-6.7-14.8-3.1 2.4-9.1 7-14.4 11-36 26.9-111 83.2-227.9 83.2-24.5 0-49.8-2.4-75.4-7.3l0.2 92.5-22.9-19.6c-64.4-55.2-59.5-130.4-59.2-133.7C228.4 115.8 354.8 0 510.4 0c157 0 284.7 115.8 284.7 258.3 0.3 2.8 9.9 102.9-67.2 148.1l-21.1 12z m-76.4-216.9c16.1 0.3 22.6 15.7 29.8 33.6 10.9 26.1 24.3 58.6 62.5 64.2l11.8 1.8v64.6c38.8-40.7 32.8-105.6 32.8-106.4 0-128.6-115.3-232-257.1-232-140.2 0-254.4 103.3-254.4 230.5-0.2 2.9-2.8 46.1 26.8 86.8l-0.2-61.5 17 3.9c28.2 6.7 57.3 10.1 86.3 10.2 107.7 0 175.2-50.5 211.4-77.7 16.1-11.8 24.2-18 33.3-18z m0 0" fill="#39363F" p-id="43540"></path></svg>